<?xml version="1.0" standalone="no"?>
<!DOCTYPE svg PUBLIC "-//W3C//DTD SVG 20010904//EN"
 "http://www.w3.org/TR/2001/REC-SVG-20010904/DTD/svg10.dtd">
<svg version="1.0" xmlns="http://www.w3.org/2000/svg"
 width="440.000000pt" height="440.000000pt" viewBox="0 0 440.000000 440.000000"
 preserveAspectRatio="xMidYMid meet">
<metadata>
Created by potrace 1.14, written by Peter Selinger 2001-2017
</metadata>
<g transform="translate(0.000000,440.000000) scale(0.100000,-0.100000)"
fill="#000000" stroke="none">
<path d="M2012 3655 c-109 -50 -209 -144 -270 -255 -57 -104 -76 -175 -76
-286 -1 -91 2 -106 28 -157 l29 -57 -60 -68 c-186 -211 -405 -575 -485 -805
-29 -85 -32 -103 -32 -222 -1 -111 2 -140 22 -200 54 -161 119 -248 250 -336
43 -29 77 -58 77 -67 0 -12 -18 -22 -60 -33 -83 -22 -115 -40 -159 -90 -49
-54 -77 -117 -83 -190 -9 -91 11 -144 76 -208 l56 -55 -1 -120 c0 -126 -17
-213 -54 -287 -11 -20 -16 -39 -13 -43 14 -14 34 -4 51 23 14 24 21 27 35 19
14 -7 15 -13 7 -23 -9 -10 12 -14 113 -20 68 -4 132 -6 143 -3 17 3 19 15 24
133 6 147 19 190 60 190 41 0 70 -92 70 -224 0 -112 -70 -102 680 -99 l655 3
3 73 c2 39 7 72 12 72 6 0 10 -6 10 -13 0 -18 39 -98 58 -119 13 -16 35 -18
169 -18 104 0 153 3 153 11 0 6 -8 23 -19 37 -45 65 -120 243 -141 337 -7 28
-15 64 -20 82 -7 28 -4 35 27 65 126 121 129 323 5 460 -63 70 -190 138 -259
138 -30 0 -29 5 11 54 38 47 87 139 112 211 22 67 31 286 14 396 -40 280 -229
618 -491 880 -97 97 -271 229 -302 229 -7 0 -22 7 -35 15 -21 16 -21 16 -4 58
13 33 17 72 17 177 0 127 -2 138 -27 186 -41 78 -76 114 -143 145 -78 37 -156
39 -233 4z m-6 -106 c9 -16 -16 -38 -54 -45 -26 -5 -32 -3 -32 11 0 34 69 62
86 34z m-106 -69 c0 -24 -53 -92 -89 -114 -50 -32 -57 -62 -30 -126 19 -44 20
-54 9 -100 -14 -57 -22 -66 -43 -46 -37 37 -28 178 17 272 35 73 136 157 136
114z m-32 -157 c-4 -22 -58 -31 -58 -10 0 20 10 27 37 27 18 0 24 -5 21 -17z
m512 -313 c0 -5 6 -10 13 -10 7 0 25 -5 39 -12 l25 -12 -21 -33 c-24 -38 -38
-40 -74 -14 -15 10 -35 20 -46 22 -16 4 -16 7 10 36 29 32 54 43 54 23z m-63
-375 c88 -11 173 -87 173 -155 0 -34 -36 -76 -81 -94 -42 -17 -192 -49 -284
-61 -27 -3 -97 -13 -154 -22 -62 -9 -145 -14 -207 -11 -98 3 -105 5 -134 33
-42 39 -60 76 -60 119 0 28 8 41 41 69 75 65 229 104 458 118 85 5 157 11 160
14 2 3 12 3 20 1 9 -3 39 -8 68 -11z m-810 -112 c-114 -191 -199 -417 -224
-597 -15 -104 -15 -121 0 -200 23 -126 46 -168 154 -273 51 -50 93 -94 93 -97
0 -3 -7 -6 -15 -6 -10 0 -15 -10 -15 -29 l0 -30 -42 22 c-62 33 -169 143 -205
213 -82 154 -83 351 -4 548 56 138 159 339 230 445 9 13 21 31 26 39 43 67 45
35 2 -35z m711 -697 c16 -83 15 -158 -1 -180 -12 -16 -94 -42 -104 -33 -2 3
-5 61 -6 131 l-2 126 25 9 c14 5 37 10 51 10 24 1 26 -4 37 -63z m-138 -81 c0
-131 -7 -150 -42 -119 -38 35 -51 76 -52 159 l-1 80 35 5 c60 10 60 9 60 -125z
m-470 -456 c22 -29 38 -54 36 -57 -3 -2 -29 5 -59 17 l-54 22 11 34 c6 19 14
35 18 35 4 0 26 -23 48 -51z m-46 -115 c11 -4 16 -19 16 -44 0 -86 81 -165
225 -220 86 -33 275 -55 387 -46 221 17 277 25 403 54 95 22 196 69 243 113
26 24 37 20 28 -9 -13 -39 -220 -124 -381 -155 -72 -14 -586 -20 -599 -7 -5 5
-21 10 -36 10 -45 0 -206 65 -250 102 -9 7 -28 29 -43 49 -23 30 -27 46 -27
97 0 62 4 68 34 56z m-284 -189 c-32 -68 -35 -104 -16 -200 3 -16 3 -23 0 -15
-4 8 -10 17 -14 20 -15 12 -28 104 -18 134 14 46 31 79 51 100 9 11 17 24 17
30 0 5 3 7 6 3 3 -3 -9 -35 -26 -72z m435 -319 c21 -31 5 -66 -29 -66 -26 0
-76 35 -76 54 0 41 80 51 105 12z m-335 -307 c0 -61 -12 -99 -31 -99 -7 0 -9
13 -5 38 4 20 9 56 12 80 9 63 24 51 24 -19z"/>
</g>
</svg>
